<svg width="16" height="17" viewBox="0 0 16 17" fill="none" xmlns="http://www.w3.org/2000/svg">
<path d="M8.01672 16.1083C6.07505 16.1083 4.13339 15.8 2.29172 15.1833C1.59172 14.9417 1.05839 14.45 0.825054 13.8083C0.583387 13.1667 0.66672 12.4583 1.05005 11.825L2.00839 10.2333C2.20839 9.90002 2.39172 9.23335 2.39172 8.84168V6.43335C2.39172 3.33335 4.91672 0.80835 8.01672 0.80835C11.1167 0.80835 13.6417 3.33335 13.6417 6.43335V8.84168C13.6417 9.22502 13.8251 9.90002 14.0251 10.2417L14.9751 11.825C15.3334 12.425 15.4001 13.15 15.1584 13.8083C14.9167 14.4667 14.3917 14.9667 13.7334 15.1833C11.9001 15.8 9.95839 16.1083 8.01672 16.1083ZM8.01672 2.05835C5.60839 2.05835 3.64172 4.01668 3.64172 6.43335V8.84168C3.64172 9.45002 3.39172 10.35 3.08339 10.875L2.12505 12.4667C1.94172 12.775 1.89172 13.1 2.00005 13.375C2.10005 13.6583 2.35005 13.875 2.69172 13.9917C6.17505 15.1583 9.86672 15.1583 13.3501 13.9917C13.6501 13.8917 13.8834 13.6667 13.9917 13.3667C14.1001 13.0667 14.0751 12.7417 13.9084 12.4667L12.9501 10.875C12.6334 10.3333 12.3917 9.44168 12.3917 8.83335V6.43335C12.3917 4.01668 10.4334 2.05835 8.01672 2.05835Z" fill="#1B5E37"/>
</svg>
