<svg width="25" height="24" viewBox="0 0 25 24" fill="none" xmlns="http://www.w3.org/2000/svg">
<rect x="0.5" width="24" height="24" rx="12" fill="#1B5E37"/>
<path d="M17.1666 11.3332H13.1666V7.33317C13.1666 6.96498 12.8681 6.6665 12.5 6.6665C12.1318 6.6665 11.8333 6.96498 11.8333 7.33317V11.3332H7.83329C7.46511 11.3332 7.16663 11.6316 7.16663 11.9998C7.16663 12.368 7.46511 12.6665 7.83329 12.6665H11.8333V16.6665C11.8333 17.0347 12.1318 17.3332 12.5 17.3332C12.8681 17.3332 13.1666 17.0347 13.1666 16.6665V12.6665H17.1666C17.5348 12.6665 17.8333 12.368 17.8333 11.9998C17.8333 11.6316 17.5348 11.3332 17.1666 11.3332Z" fill="white"/>
</svg>
